<svg width="875" height="344" viewBox="0 0 875 344" fill="none" xmlns="http://www.w3.org/2000/svg">
<path d="M818.097 26.0003C786.924 26.0003 761.653 51.2535 761.653 82.4049C761.653 113.556 786.924 138.81 818.097 138.81C849.27 138.81 874.541 113.556 874.541 82.4049C874.541 51.2535 849.27 26.0003 818.097 26.0003Z" fill="url(#paint0_linear)"/>
<path d="M487.611 310.196C498.442 310.196 507.223 301.421 507.223 290.598C507.223 279.774 498.442 271 487.611 271C476.78 271 468 279.774 468 290.598C468 301.421 476.78 310.196 487.611 310.196Z" fill="url(#paint1_linear)"/>
<path d="M693.964 497.716C778.444 497.716 846.928 429.279 846.928 344.858C846.928 260.437 778.444 192 693.964 192C609.484 192 541 260.437 541 344.858C541 429.279 609.484 497.716 693.964 497.716Z" fill="url(#paint2_linear)"/>
<path d="M208.422 526.529C333.471 526.529 434.843 425.227 434.843 300.265C434.843 175.302 333.471 74 208.422 74C83.3724 74 -18 175.302 -18 300.265C-18 425.227 83.3724 526.529 208.422 526.529Z" fill="url(#paint3_linear)"/>
<path d="M100.052 220.716C184.532 220.716 253.016 152.279 253.016 67.858C253.016 -16.5631 184.532 -85 100.052 -85C15.5723 -85 -52.9121 -16.5631 -52.9121 67.858C-52.9121 152.279 15.5723 220.716 100.052 220.716Z" fill="url(#paint4_linear)"/>
<defs>
<linearGradient id="paint0_linear" x1="818.099" y1="26.0017" x2="818.099" y2="138.808" gradientUnits="userSpaceOnUse">
<stop stop-color="#F37021"/>
<stop offset="1" stop-color="#FFA56F"/>
</linearGradient>
<linearGradient id="paint1_linear" x1="487.611" y1="310.195" x2="487.611" y2="271.001" gradientUnits="userSpaceOnUse">
<stop stop-color="#F37021"/>
<stop offset="1" stop-color="#FFA56F"/>
</linearGradient>
<linearGradient id="paint2_linear" x1="693.96" y1="497.712" x2="693.96" y2="192.004" gradientUnits="userSpaceOnUse">
<stop stop-color="#F37021"/>
<stop offset="1" stop-color="#FFA56F"/>
</linearGradient>
<linearGradient id="paint3_linear" x1="208.416" y1="526.523" x2="208.416" y2="74.0058" gradientUnits="userSpaceOnUse">
<stop stop-color="#F37021"/>
<stop offset="1" stop-color="#FFA56F"/>
</linearGradient>
<linearGradient id="paint4_linear" x1="100.048" y1="220.712" x2="100.048" y2="-84.9961" gradientUnits="userSpaceOnUse">
<stop stop-color="#F37021"/>
<stop offset="1" stop-color="#FFA56F"/>
</linearGradient>
</defs>
</svg>
